HIERARCHY
ROOT Hips
{
	OFFSET 0.0000 0.0000 0.0000
	CHANNELS 6 Xposition Yposition Zposition Zrotation Xrotation Yrotation
	JOINT Ab
	{
		OFFSET -0.0000 8.1305 -0.0000
		CHANNELS 3 Zrotation Xrotation Yrotation
		JOINT Chest
		{
			OFFSET -0.0000 26.2902 -0.0000
			CHANNELS 3 Zrotation Xrotation Yrotation
			JOINT Neck
			{
				OFFSET -0.0000 26.2902 0.0000
				CHANNELS 3 Zrotation Xrotation Yrotation
				JOINT Head
				{
					OFFSET -0.0000 10.8167 0.0000
					CHANNELS 3 Zrotation Xrotation Yrotation
					End Site
					{
						OFFSET -0.0000 16.7167 0.0000
					}
				}
			}
			JOINT LeftCollar
			{
				OFFSET -0.0000 26.2902 0.0000
				CHANNELS 3 Zrotation Xrotation Yrotation
				JOINT LeftShoulder
				{
					OFFSET 19.6667 -0.0000 0.0000
					CHANNELS 3 Zrotation Xrotation Yrotation
					JOINT LeftElbow
					{
						OFFSET 27.2190 0.0000 0.0000
						CHANNELS 3 Zrotation Xrotation Yrotation
						JOINT LeftWrist
						{
							OFFSET 30.7431 0.0000 0.0000
							CHANNELS 3 Zrotation Xrotation Yrotation
							End Site
							{
								OFFSET 0.0000 -14.7500 0.0000
							}
						}
					}
				}
			}
			JOINT RightCollar
			{
				OFFSET -0.0000 26.2902 0.0000
				CHANNELS 3 Zrotation Xrotation Yrotation
				JOINT RightShoulder
				{
					OFFSET -19.6667 0.0000 0.0000
					CHANNELS 3 Zrotation Xrotation Yrotation
					JOINT RightElbow
					{
						OFFSET -27.2190 0.0000 0.0000
						CHANNELS 3 Zrotation Xrotation Yrotation
						JOINT RightWrist
						{
							OFFSET -30.7431 0.0000 0.0000
							CHANNELS 3 Zrotation Xrotation Yrotation
							End Site
							{
								OFFSET -0.0000 -14.7500 0.0000
							}
						}
					}
				}
			}
		}
	}
	JOINT LeftHip
	{
		OFFSET 11.8000 0.0000 0.0000
		CHANNELS 3 Zrotation Xrotation Yrotation
		JOINT LeftKnee
		{
			OFFSET -0.0000 -39.7832 0.0000
			CHANNELS 3 Zrotation Xrotation Yrotation
			JOINT LeftAnkle
			{
				OFFSET -0.0000 -41.7317 0.0000
				CHANNELS 3 Zrotation Xrotation Yrotation
				End Site
				{
					OFFSET -0.0000 -4.9167 16.7167
				}
			}
		}
	}
	JOINT RightHip
	{
		OFFSET -11.8000 0.0000 0.0000
		CHANNELS 3 Zrotation Xrotation Yrotation
		JOINT RightKnee
		{
			OFFSET -0.0000 -39.7832 0.0000
			CHANNELS 3 Zrotation Xrotation Yrotation
			JOINT RightAnkle
			{
				OFFSET -0.0000 -41.7317 0.0000
				CHANNELS 3 Zrotation Xrotation Yrotation
				End Site
				{
					OFFSET -0.0000 -4.9167 16.7167
				}
			}
		}
	}
}
MOTION
Frames: 7
Frame Time: 0.010000
-16.1933 96.7749 175.8877 358.4181 358.2756 177.6944 357.8641 348.4644 0.4581 2.1591 8.0519 0.5252 359.9350 355.9276 359.7081 354.9478 1.7481 359.7869 338.4187 357.4782 13.3297 318.3355 57.0066 341.0181 8.1363 357.7264 328.8413 84.5269 357.7891 345.1422 28.1202 355.9066 343.7710 45.1589 45.1262 3.0334 342.6084 355.1746 30.8305 271.7678 354.9857 12.2507 357.1601 4.0580 358.2094 357.5492 7.7955 1.8679 355.1132 349.8751 19.6811 358.5847 8.4033 9.3476 5.6051 3.8712 7.5369 350.4028 344.0170 317.8404 
-16.2108 96.7707 175.8923 358.4188 358.2397 177.7064 357.8607 348.4680 0.4607 2.1654 8.0401 0.5147 359.9126 355.9173 359.7216 354.9722 1.7898 359.8011 338.4225 357.4537 13.3354 318.2840 57.0224 341.0474 8.2265 357.6939 328.8275 84.4715 357.8026 345.1468 28.1175 355.9001 343.7739 45.1457 45.1463 3.0487 342.5677 355.1615 30.8040 271.7953 354.9832 12.2297 357.1496 3.9651 358.2136 357.5468 7.8984 1.8233 355.1808 349.8371 19.6977 358.5683 8.3635 9.3641 5.6190 3.8741 7.5308 350.4063 344.0057 317.8284 
-16.2336 96.7692 175.8853 358.4192 358.2253 177.7260 357.8556 348.4754 0.4558 2.1687 8.0467 0.5138 359.9272 355.9193 359.7193 354.9523 1.8170 359.7998 338.4251 357.4563 13.3354 318.2649 57.0353 341.0454 8.2177 357.7246 328.8358 84.4735 357.7964 345.1673 28.1174 355.9091 343.7743 45.1458 45.0835 3.0352 342.5586 355.1413 30.9179 271.6464 355.2723 11.8235 357.1353 3.9034 358.1758 357.5364 7.9946 1.8391 355.1764 349.7716 19.7371 358.5497 8.3592 9.3557 5.6271 3.8667 7.4990 350.4210 343.9956 317.8536 
-16.2551 96.7643 175.8856 358.4242 358.1899 177.7461 357.8601 348.4678 0.4480 2.1576 8.0509 0.5109 359.9789 355.9301 359.7216 354.9066 1.8323 359.8026 338.4447 357.4357 13.3418 318.2751 57.0897 340.9907 8.2602 357.6851 328.8668 84.4787 357.7909 345.1838 28.1122 355.8928 343.7676 45.1583 45.0899 3.0348 342.5206 355.1355 30.9122 271.6672 355.2726 11.7627 357.1318 3.8094 358.1612 357.5255 8.1056 1.7807 355.1950 349.7178 19.7855 358.5362 8.3285 9.3478 5.6417 3.8646 7.4911 350.3683 344.0229 317.8497 
-16.2782 96.7594 175.8880 358.4296 358.1556 177.7621 357.8556 348.4846 0.4504 2.1680 8.0231 0.5148 0.0021 355.9399 359.7360 354.8894 1.8562 359.8180 338.4383 357.4284 13.3636 318.3116 57.1364 340.9426 8.2460 357.7030 328.8800 84.5248 357.7840 345.2520 28.1003 355.9097 343.7649 45.1774 45.0750 3.0127 342.5349 355.1303 30.9259 271.7352 355.2356 11.6161 357.1271 3.7151 358.1468 357.5107 8.2158 1.7690 355.2159 349.6763 19.8034 358.5250 8.2933 9.3052 5.6492 3.8671 7.4907 350.3926 343.9830 317.8688 
-16.3072 96.7564 175.8850 358.4242 358.1303 177.7673 357.8373 348.5185 0.4655 2.1920 7.9754 0.5268 359.9474 355.9689 359.7393 354.9886 1.8610 359.8206 338.4154 357.4448 13.3711 318.3433 57.1617 340.9088 8.2241 357.7023 328.9231 84.0954 357.7608 344.9831 28.0872 355.9201 343.7429 45.1807 45.0684 2.9989 342.5189 355.1422 30.9286 271.7505 355.2035 11.5261 357.1038 3.6392 358.1207 357.4995 8.3168 1.7543 355.2564 349.6246 19.8309 358.4929 8.2686 9.2684 5.6626 3.8749 7.5164 350.4094 343.9695 317.8592 
-16.3376 96.7518 175.8809 358.4280 358.1061 177.7751 357.8503 348.5270 0.4704 2.1798 7.9829 0.5311 359.9378 355.9612 359.7286 355.0100 1.8915 359.8121 338.4191 357.4460 13.3696 318.3398 57.1795 340.8827 8.2786 357.6804 328.9333 83.9436 357.7610 344.9287 28.0861 355.9114 343.7374 45.1763 45.0665 2.9977 342.5254 355.1371 30.9282 271.6715 355.1815 11.5042 357.0876 3.5693 358.0813 357.4866 8.4072 1.7647 355.3255 349.5921 19.8486 358.4710 8.2464 9.2467 5.6747 3.8778 7.5084 350.4914 343.9247 317.8654 
